<svg width="563.27744140625px" height="128.03500976562498px" xmlns="http://www.w3.org/2000/svg" viewBox="-31.63872070312499 10.982495117187511 563.27744140625 128.03500976562498" style="background: rgba(0, 0, 0, 0);" preserveAspectRatio="xMidYMid"><defs><filter id="editing-hole" x="-100%" y="-100%" width="300%" height="300%"><feFlood flood-color="#ffffff" result="black"></feFlood><feMorphology operator="dilate" radius="2" in="SourceGraphic" result="erode"></feMorphology><feGaussianBlur in="erode" stdDeviation="4" result="blur"></feGaussianBlur><feOffset in="blur" dx="2" dy="2" result="offset"></feOffset><feComposite operator="atop" in="offset" in2="black" result="merge"></feComposite><feComposite operator="in" in="merge" in2="SourceGraphic" result="inner-shadow"></feComposite></filter></defs><g filter="url(#editing-hole)"><g transform="translate(51.02499866485596, 98.03999900817871)"><path d="M19.52-27.78L19.52-27.78L19.52-17.02L19.52-17.02Q19.52-11.84 24.26-11.84L24.26-11.84L24.26-11.84Q27.90-11.84 29.06-15.30L29.06-15.30L29.06-15.30Q29.38-16.38 29.86-16.77L29.86-16.77L29.86-16.77Q30.34-17.15 31.42-17.15L31.42-17.15L44.48-17.15L44.48-17.15Q45.06-17.15 45.47-16.74L45.47-16.74L45.47-16.74Q45.89-16.32 45.89-15.74L45.89-15.74L45.89-15.74Q45.89-10.18 42.69-6.40L42.69-6.40L42.69-6.40Q36.80 0.64 24.32 0.64L24.32 0.64L24.32 0.64Q14.53 0.64 8.70-3.68L8.70-3.68L8.70-3.68Q2.88-8 2.88-16.96L2.88-16.96L2.88-27.84L2.88-27.84Q2.88-36.61 8.83-41.02L8.83-41.02L8.83-41.02Q14.78-45.44 24.32-45.44L24.32-45.44L24.32-45.44Q36.80-45.44 42.69-38.40L42.69-38.40L42.69-38.40Q45.89-34.62 45.89-29.06L45.89-29.06L45.89-29.06Q45.89-28.48 45.47-28.06L45.47-28.06L45.47-28.06Q45.06-27.65 44.48-27.65L44.48-27.65L31.42-27.65L31.42-27.65Q30.40-27.65 29.92-28.03L29.92-28.03L29.92-28.03Q29.44-28.42 29.06-29.50L29.06-29.50L29.06-29.50Q27.84-32.96 24.26-32.96L24.26-32.96L24.26-32.96Q19.52-32.96 19.52-27.78ZM56.54-40.70L56.54-40.70L56.54-40.70Q62.40-45.44 72.06-45.44L72.06-45.44L72.06-45.44Q81.73-45.44 87.58-40.67L87.58-40.67L87.58-40.67Q93.44-35.90 93.44-27.26L93.44-27.26L93.44-17.28L93.44-17.28Q93.44-8.51 87.65-3.94L87.65-3.94L87.65-3.94Q81.86 0.64 72.06 0.64L72.06 0.64L72.06 0.64Q62.27 0.64 56.48-3.94L56.48-3.94L56.48-3.94Q50.69-8.51 50.69-17.28L50.69-17.28L50.69-27.26L50.69-27.26Q50.69-35.97 56.54-40.70ZM68.61-13.12L68.61-13.12L68.61-13.12Q69.89-11.84 72.06-11.84L72.06-11.84L72.06-11.84Q74.24-11.84 75.52-13.12L75.52-13.12L75.52-13.12Q76.80-14.40 76.80-17.02L76.80-17.02L76.80-27.78L76.80-27.78Q76.80-30.34 75.52-31.65L75.52-31.65L75.52-31.65Q74.24-32.96 72.06-32.96L72.06-32.96L72.06-32.96Q69.89-32.96 68.61-31.65L68.61-31.65L68.61-31.65Q67.33-30.34 67.33-27.78L67.33-27.78L67.33-17.02L67.33-17.02Q67.33-14.40 68.61-13.12ZM127.49-44.80L127.49-44.80L139.07-44.80L139.07-44.80Q139.78-44.80 140.29-44.29L140.29-44.29L140.29-44.29Q140.80-43.78 140.80-43.07L140.80-43.07L140.80-1.73L140.80-1.73Q140.80-1.02 140.29-0.51L140.29-0.51L140.29-0.51Q139.78 0 139.07 0L139.07 0L128.96 0L128.96 0Q127.30 0 126.34-1.47L126.34-1.47L115.52-17.79L115.52-1.73L115.52-1.73Q115.52-1.02 115.01-0.51L115.01-0.51L115.01-0.51Q114.50 0 113.79 0L113.79 0L102.21 0L102.21 0Q101.50 0 100.99-0.51L100.99-0.51L100.99-0.51Q100.48-1.02 100.48-1.73L100.48-1.73L100.48-43.07L100.48-43.07Q100.48-43.78 100.99-44.29L100.99-44.29L100.99-44.29Q101.50-44.80 102.21-44.80L102.21-44.80L112.32-44.80L112.32-44.80Q114.11-44.80 114.94-43.33L114.94-43.33L125.76-25.60L125.76-43.07L125.76-43.07Q125.76-43.78 126.27-44.29L126.27-44.29L126.27-44.29Q126.78-44.80 127.49-44.80ZM176.13-44.80L176.13-44.80L187.71-44.80L187.71-44.80Q188.42-44.80 188.93-44.29L188.93-44.29L188.93-44.29Q189.44-43.78 189.44-43.07L189.44-43.07L189.44-1.73L189.44-1.73Q189.44-1.02 188.93-0.51L188.93-0.51L188.93-0.51Q188.42 0 187.71 0L187.71 0L177.60 0L177.60 0Q175.94 0 174.98-1.47L174.98-1.47L164.16-17.79L164.16-1.73L164.16-1.73Q164.16-1.02 163.65-0.51L163.65-0.51L163.65-0.51Q163.14 0 162.43 0L162.43 0L150.85 0L150.85 0Q150.14 0 149.63-0.51L149.63-0.51L149.63-0.51Q149.12-1.02 149.12-1.73L149.12-1.73L149.12-43.07L149.12-43.07Q149.12-43.78 149.63-44.29L149.63-44.29L149.63-44.29Q150.14-44.80 150.85-44.80L150.85-44.80L160.96-44.80L160.96-44.80Q162.75-44.80 163.58-43.33L163.58-43.33L174.40-25.60L174.40-43.07L174.40-43.07Q174.40-43.78 174.91-44.29L174.91-44.29L174.91-44.29Q175.42-44.80 176.13-44.80ZM213.12-16.51L213.12-12.48L232.83-12.48L232.83-12.48Q233.54-12.48 234.05-11.97L234.05-11.97L234.05-11.97Q234.56-11.46 234.56-10.75L234.56-10.75L234.56-1.73L234.56-1.73Q234.56-1.02 234.05-0.51L234.05-0.51L234.05-0.51Q233.54 0 232.83 0L232.83 0L199.49 0L199.49 0Q198.78 0 198.27-0.51L198.27-0.51L198.27-0.51Q197.76-1.02 197.76-1.73L197.76-1.73L197.76-43.07L197.76-43.07Q197.76-43.78 198.27-44.29L198.27-44.29L198.27-44.29Q198.78-44.80 199.49-44.80L199.49-44.80L232.32-44.80L232.32-44.80Q233.02-44.80 233.54-44.29L233.54-44.29L233.54-44.29Q234.05-43.78 234.05-43.07L234.05-43.07L234.05-34.05L234.05-34.05Q234.05-33.34 233.54-32.83L233.54-32.83L233.54-32.83Q233.02-32.32 232.32-32.32L232.32-32.32L213.12-32.32L213.12-28.29L230.91-28.29L230.91-28.29Q231.62-28.29 232.13-27.78L232.13-27.78L232.13-27.78Q232.64-27.26 232.64-26.56L232.64-26.56L232.64-18.24L232.64-18.24Q232.64-17.54 232.13-17.02L232.13-17.02L232.13-17.02Q231.62-16.51 230.91-16.51L230.91-16.51L213.12-16.51ZM257.60-27.78L257.60-27.78L257.60-17.02L257.60-17.02Q257.60-11.84 262.34-11.84L262.34-11.84L262.34-11.84Q265.98-11.84 267.14-15.30L267.14-15.30L267.14-15.30Q267.46-16.38 267.94-16.77L267.94-16.77L267.94-16.77Q268.42-17.15 269.50-17.15L269.50-17.15L282.56-17.15L282.56-17.15Q283.14-17.15 283.55-16.74L283.55-16.74L283.55-16.74Q283.97-16.32 283.97-15.74L283.97-15.74L283.97-15.74Q283.97-10.18 280.77-6.40L280.77-6.40L280.77-6.40Q274.88 0.64 262.40 0.64L262.40 0.64L262.40 0.64Q252.61 0.64 246.78-3.68L246.78-3.68L246.78-3.68Q240.96-8 240.96-16.96L240.96-16.96L240.96-27.84L240.96-27.84Q240.96-36.61 246.91-41.02L246.91-41.02L246.91-41.02Q252.86-45.44 262.40-45.44L262.40-45.44L262.40-45.44Q274.88-45.44 280.77-38.40L280.77-38.40L280.77-38.40Q283.97-34.62 283.97-29.06L283.97-29.06L283.97-29.06Q283.97-28.48 283.55-28.06L283.55-28.06L283.55-28.06Q283.14-27.65 282.56-27.65L282.56-27.65L269.50-27.65L269.50-27.65Q268.48-27.65 268-28.03L268-28.03L268-28.03Q267.52-28.42 267.14-29.50L267.14-29.50L267.14-29.50Q265.92-32.96 262.34-32.96L262.34-32.96L262.34-32.96Q257.60-32.96 257.60-27.78ZM288.58-44.80L288.58-44.80L326.08-44.80L326.08-44.80Q326.78-44.80 327.30-44.29L327.30-44.29L327.30-44.29Q327.81-43.78 327.81-43.07L327.81-43.07L327.81-32.77L327.81-32.77Q327.81-32.06 327.30-31.55L327.30-31.55L327.30-31.55Q326.78-31.04 326.08-31.04L326.08-31.04L315.46-31.04L315.46-1.73L315.46-1.73Q315.46-1.02 314.94-0.51L314.94-0.51L314.94-0.51Q314.43 0 313.73 0L313.73 0L300.93 0L300.93 0Q300.22 0 299.71-0.51L299.71-0.51L299.71-0.51Q299.20-1.02 299.20-1.73L299.20-1.73L299.20-31.04L288.58-31.04L288.58-31.04Q287.87-31.04 287.36-31.55L287.36-31.55L287.36-31.55Q286.85-32.06 286.85-32.77L286.85-32.77L286.85-43.07L286.85-43.07Q286.85-43.78 287.36-44.29L287.36-44.29L287.36-44.29Q287.87-44.80 288.58-44.80ZM387.71-43.07L387.71-20.16L393.28-20.16L393.28-20.16Q394.05-20.16 394.56-19.65L394.56-19.65L394.56-19.65Q395.07-19.14 395.07-18.43L395.07-18.43L395.07-8.90L395.07-8.90Q395.07-8.19 394.56-7.68L394.56-7.68L394.56-7.68Q394.05-7.17 393.34-7.17L393.34-7.17L387.71-7.17L387.71-1.73L387.71-1.73Q387.71-1.02 387.20-0.51L387.20-0.51L387.20-0.51Q386.69 0 385.98 0L385.98 0L374.08 0L374.08 0Q373.38 0 372.86-0.51L372.86-0.51L372.86-0.51Q372.35-1.02 372.35-1.73L372.35-1.73L372.35-7.17L353.22-7.17L353.22-7.17Q352.51-7.17 352-7.68L352-7.68L352-7.68Q351.49-8.19 351.49-8.90L351.49-8.90L351.49-18.05L351.49-18.05Q351.49-19.14 352.19-20.03L352.19-20.03L370.30-43.71L370.30-43.71Q371.20-44.80 372.67-44.80L372.67-44.80L385.98-44.80L385.98-44.80Q386.69-44.80 387.20-44.29L387.20-44.29L387.20-44.29Q387.71-43.78 387.71-43.07L387.71-43.07ZM366.08-19.46L372.80-19.46L372.80-28.67L366.08-19.46Z" fill="#000000"></path></g></g><style>text {
  font-size: 64px;
  font-family: Arial Black;
  dominant-baseline: central;
  text-anchor: middle;
}</style></svg>