<svg width="499.3150390625px" height="106.402490234375px" xmlns="http://www.w3.org/2000/svg" viewBox="0.34248046875001137 21.798754882812503 499.3150390625 106.402490234375" style="background: none;" preserveAspectRatio="xMidYMid"><defs><linearGradient id="editing-gradient-gradient" x1="0" x2="1" y1="0.5" y2="0.5" gradientUnits="objectBoundingBox"><stop offset="0" stop-color="#000000"></stop><stop offset="1" stop-color="#000000"></stop></linearGradient></defs><g><g transform="translate(73.77500057220459, 99)"><path d="M35.07 0L35.07 0L19.46 0L19.46 0Q11.46 0 7.58-3.20L7.58-3.20L7.58-3.20Q3.71-6.40 3.71-13.06L3.71-13.06L3.71-32.96L3.71-32.96Q3.71-39.62 7.58-42.85L7.58-42.85L7.58-42.85Q11.46-46.08 19.46-46.08L19.46-46.08L35.07-46.08L35.07-46.08Q36.29-46.08 36.83-45.54L36.83-45.54L36.83-45.54Q37.38-44.99 37.38-43.78L37.38-43.78L37.38-36.03L37.38-36.03Q37.38-34.82 36.83-34.27L36.83-34.27L36.83-34.27Q36.29-33.73 35.07-33.73L35.07-33.73L22.21-33.73L22.21-33.73Q20.22-33.73 19.26-32.93L19.26-32.93L19.26-32.93Q18.30-32.13 18.30-30.53L18.30-30.53L18.30-15.30L18.30-15.30Q18.30-13.70 19.26-12.96L19.26-12.96L19.26-12.96Q20.22-12.22 22.21-12.22L22.21-12.22L35.07-12.22L35.07-12.22Q36.29-12.22 36.83-11.68L36.83-11.68L36.83-11.68Q37.38-11.14 37.38-9.92L37.38-9.92L37.38-2.30L37.38-2.30Q37.38-1.09 36.83-0.54L36.83-0.54L36.83-0.54Q36.29 0 35.07 0ZM83.65-33.92L83.65-12.10L83.65-12.10Q83.65-9.15 82.78-6.75L82.78-6.75L82.78-6.75Q81.92-4.35 79.71-2.66L79.71-2.66L79.71-2.66Q77.50-0.96 73.63 0L73.63 0L73.63 0Q69.76 0.96 63.81 0.96L63.81 0.96L63.81 0.96Q57.86 0.96 53.95 0L53.95 0L53.95 0Q50.05-0.96 47.84-2.66L47.84-2.66L47.84-2.66Q45.63-4.35 44.77-6.75L44.77-6.75L44.77-6.75Q43.90-9.15 43.90-12.10L43.90-12.10L43.90-33.92L43.90-33.92Q43.90-36.86 44.77-39.26L44.77-39.26L44.77-39.26Q45.63-41.66 47.84-43.39L47.84-43.39L47.84-43.39Q50.05-45.12 53.95-46.08L53.95-46.08L53.95-46.08Q57.86-47.04 63.81-47.04L63.81-47.04L63.81-47.04Q69.76-47.04 73.63-46.08L73.63-46.08L73.63-46.08Q77.50-45.12 79.71-43.39L79.71-43.39L79.71-43.39Q81.92-41.66 82.78-39.26L82.78-39.26L82.78-39.26Q83.65-36.86 83.65-33.92L83.65-33.92ZM58.43-31.62L58.43-14.40L58.43-14.40Q58.43-13.12 59.39-12.26L59.39-12.26L59.39-12.26Q60.35-11.39 63.81-11.39L63.81-11.39L63.81-11.39Q67.26-11.39 68.22-12.26L68.22-12.26L68.22-12.26Q69.18-13.12 69.18-14.40L69.18-14.40L69.18-31.62L69.18-31.62Q69.18-32.83 68.22-33.70L68.22-33.70L68.22-33.70Q67.26-34.56 63.81-34.56L63.81-34.56L63.81-34.56Q60.35-34.56 59.39-33.70L59.39-33.70L59.39-33.70Q58.43-32.83 58.43-31.62L58.43-31.62ZM103.68 0L103.68 0L94.08 0L94.08 0Q92.86 0 92.32-0.54L92.32-0.54L92.32-0.54Q91.78-1.09 91.78-2.30L91.78-2.30L91.78-43.78L91.78-43.78Q91.78-44.99 92.32-45.54L92.32-45.54L92.32-45.54Q92.86-46.08 94.08-46.08L94.08-46.08L100.74-46.08L100.74-46.08Q101.95-46.08 102.82-45.70L102.82-45.70L102.82-45.70Q103.68-45.31 104.51-44.35L104.51-44.35L116.93-30.14L116.93-43.78L116.93-43.78Q116.93-44.99 117.47-45.54L117.47-45.54L117.47-45.54Q118.02-46.08 119.23-46.08L119.23-46.08L128.83-46.08L128.83-46.08Q130.05-46.08 130.59-45.54L130.59-45.54L130.59-45.54Q131.14-44.99 131.14-43.78L131.14-43.78L131.14-2.30L131.14-2.30Q131.14-1.09 130.59-0.54L130.59-0.54L130.59-0.54Q130.05 0 128.83 0L128.83 0L119.23 0L119.23 0Q118.02 0 117.47-0.54L117.47-0.54L117.47-0.54Q116.93-1.09 116.93-2.30L116.93-2.30L116.93-10.18L105.98-23.42L105.98-2.30L105.98-2.30Q105.98-1.09 105.44-0.54L105.44-0.54L105.44-0.54Q104.90 0 103.68 0ZM151.87 0L151.87 0L142.27 0L142.27 0Q141.06 0 140.51-0.54L140.51-0.54L140.51-0.54Q139.97-1.09 139.97-2.30L139.97-2.30L139.97-43.78L139.97-43.78Q139.97-44.99 140.51-45.54L140.51-45.54L140.51-45.54Q141.06-46.08 142.27-46.08L142.27-46.08L148.93-46.08L148.93-46.08Q150.14-46.08 151.01-45.70L151.01-45.70L151.01-45.70Q151.87-45.31 152.70-44.35L152.70-44.35L165.12-30.14L165.12-43.78L165.12-43.78Q165.12-44.99 165.66-45.54L165.66-45.54L165.66-45.54Q166.21-46.08 167.42-46.08L167.42-46.08L177.02-46.08L177.02-46.08Q178.24-46.08 178.78-45.54L178.78-45.54L178.78-45.54Q179.33-44.99 179.33-43.78L179.33-43.78L179.33-2.30L179.33-2.30Q179.33-1.09 178.78-0.54L178.78-0.54L178.78-0.54Q178.24 0 177.02 0L177.02 0L167.42 0L167.42 0Q166.21 0 165.66-0.54L165.66-0.54L165.66-0.54Q165.12-1.09 165.12-2.30L165.12-2.30L165.12-10.18L154.18-23.42L154.18-2.30L154.18-2.30Q154.18-1.09 153.63-0.54L153.63-0.54L153.63-0.54Q153.09 0 151.87 0ZM220.16 0L220.16 0L190.46 0L190.46 0Q189.25 0 188.70-0.54L188.70-0.54L188.70-0.54Q188.16-1.09 188.16-2.30L188.16-2.30L188.16-43.78L188.16-43.78Q188.16-44.99 188.70-45.54L188.70-45.54L188.70-45.54Q189.25-46.08 190.46-46.08L190.46-46.08L220.16-46.08L220.16-46.08Q221.38-46.08 221.92-45.54L221.92-45.54L221.92-45.54Q222.46-44.99 222.46-43.78L222.46-43.78L222.46-36.29L222.46-36.29Q222.46-35.07 221.92-34.53L221.92-34.53L221.92-34.53Q221.38-33.98 220.16-33.98L220.16-33.98L202.50-33.98L202.50-29.06L214.98-29.06L214.98-29.06Q216.19-29.06 216.74-28.51L216.74-28.51L216.74-28.51Q217.28-27.97 217.28-26.75L217.28-26.75L217.28-19.90L217.28-19.90Q217.28-18.69 216.74-18.14L216.74-18.14L216.74-18.14Q216.19-17.60 214.98-17.60L214.98-17.60L202.50-17.60L202.50-12.10L220.16-12.10L220.16-12.10Q221.38-12.10 221.92-11.55L221.92-11.55L221.92-11.55Q222.46-11.01 222.46-9.79L222.46-9.79L222.46-2.30L222.46-2.30Q222.46-1.09 221.92-0.54L221.92-0.54L221.92-0.54Q221.38 0 220.16 0ZM260.67 0L260.67 0L245.06 0L245.06 0Q237.06 0 233.18-3.20L233.18-3.20L233.18-3.20Q229.31-6.40 229.31-13.06L229.31-13.06L229.31-32.96L229.31-32.96Q229.31-39.62 233.18-42.85L233.18-42.85L233.18-42.85Q237.06-46.08 245.06-46.08L245.06-46.08L260.67-46.08L260.67-46.08Q261.89-46.08 262.43-45.54L262.43-45.54L262.43-45.54Q262.98-44.99 262.98-43.78L262.98-43.78L262.98-36.03L262.98-36.03Q262.98-34.82 262.43-34.27L262.43-34.27L262.43-34.27Q261.89-33.73 260.67-33.73L260.67-33.73L247.81-33.73L247.81-33.73Q245.82-33.73 244.86-32.93L244.86-32.93L244.86-32.93Q243.90-32.13 243.90-30.53L243.90-30.53L243.90-15.30L243.90-15.30Q243.90-13.70 244.86-12.96L244.86-12.96L244.86-12.96Q245.82-12.22 247.81-12.22L247.81-12.22L260.67-12.22L260.67-12.22Q261.89-12.22 262.43-11.68L262.43-11.68L262.43-11.68Q262.98-11.14 262.98-9.92L262.98-9.92L262.98-2.30L262.98-2.30Q262.98-1.09 262.43-0.54L262.43-0.54L262.43-0.54Q261.89 0 260.67 0ZM291.97 0L291.97 0L281.60 0L281.60 0Q280.38 0 279.84-0.54L279.84-0.54L279.84-0.54Q279.30-1.09 279.30-2.30L279.30-2.30L279.30-33.73L269.89-33.73L269.89-33.73Q268.67-33.73 268.13-34.27L268.13-34.27L268.13-34.27Q267.58-34.82 267.58-36.03L267.58-36.03L267.58-43.78L267.58-43.78Q267.58-44.99 268.13-45.54L268.13-45.54L268.13-45.54Q268.67-46.08 269.89-46.08L269.89-46.08L303.68-46.08L303.68-46.08Q304.90-46.08 305.44-45.54L305.44-45.54L305.44-45.54Q305.98-44.99 305.98-43.78L305.98-43.78L305.98-36.03L305.98-36.03Q305.98-34.82 305.44-34.27L305.44-34.27L305.44-34.27Q304.90-33.73 303.68-33.73L303.68-33.73L294.27-33.73L294.27-2.30L294.27-2.30Q294.27-1.09 293.73-0.54L293.73-0.54L293.73-0.54Q293.18 0 291.97 0ZM334.27-2.30L334.27-10.69L323.46-10.69L323.46-10.69Q317.25-10.69 314.53-13.28L314.53-13.28L314.53-13.28Q311.81-15.87 311.81-21.31L311.81-21.31L311.81-43.78L311.81-43.78Q311.81-44.99 312.35-45.54L312.35-45.54L312.35-45.54Q312.90-46.08 314.11-46.08L314.11-46.08L324.03-46.08L324.03-46.08Q325.25-46.08 325.79-45.54L325.79-45.54L325.79-45.54Q326.34-44.99 326.34-43.78L326.34-43.78L326.34-26.24L326.34-26.24Q326.34-25.22 326.88-24.64L326.88-24.64L326.88-24.64Q327.42-24.06 328.32-24.06L328.32-24.06L334.27-24.06L334.27-43.78L334.27-43.78Q334.27-44.99 334.82-45.54L334.82-45.54L334.82-45.54Q335.36-46.08 336.58-46.08L336.58-46.08L346.43-46.08L346.43-46.08Q347.65-46.08 348.19-45.54L348.19-45.54L348.19-45.54Q348.74-44.99 348.74-43.78L348.74-43.78L348.74-2.30L348.74-2.30Q348.74-1.09 348.19-0.54L348.19-0.54L348.19-0.54Q347.65 0 346.43 0L346.43 0L336.58 0L336.58 0Q335.36 0 334.82-0.54L334.82-0.54L334.82-0.54Q334.27-1.09 334.27-2.30L334.27-2.30Z" fill="url(#editing-gradient-gradient)"></path></g></g><style>text {
  font-size: 64px;
  font-family: Arial Black;
  dominant-baseline: central;
  text-anchor: middle;
}</style></svg>