<?xml version="1.0" encoding="utf-8"?>
<!-- Generator: Adobe Illustrator 18.0.0, SVG Export Plug-In . SVG Version: 6.00 Build 0)  -->
<!DOCTYPE svg PUBLIC "-//W3C//DTD SVG 1.1//EN" "http://www.w3.org/Graphics/SVG/1.1/DTD/svg11.dtd">
<svg version="1.1" id="Layer_1" xmlns="http://www.w3.org/2000/svg" xmlns:xlink="http://www.w3.org/1999/xlink" x="0px" y="0px"
	 viewBox="0 0 2560 1600" enable-background="new 0 0 2560 1600" xml:space="preserve">
<pattern  width="561.4026" height="519.5495" patternUnits="userSpaceOnUse" id="New_Pattern" viewBox="-0.0002 -519.5497 561.4026 519.5495" overflow="visible">
	<g>
		<polygon fill="none" points="-0.0002,-519.5497 561.4025,-519.5497 561.4025,-0.0002 -0.0002,-0.0002 		"/>
		<g>
			<path fill="#00A388" d="M430.5197-495.097c0.68,0.63,1.68,0.55,2.53,0.76c6.325,1.26,12.565,2.905,18.765,4.675
				c3.82,1.325,7.655,3.275,10.215,6.495c-3.775-0.87-7.51-1.995-11.125-3.39c-6.735-3.085-13.76-5.45-20.69-8.055
				c4.295,7.785,11.12,14.86,19.955,17.15c6.995,1.685,14.395,0.54,21.045-1.99c-0.35,5.595,0.79,11.25,3.25,16.28
				c0.235,0.485,0.395,1,0.485,1.54c-4.245,0.57-8.42,1.565-12.515,2.795c-16.51,5.135-31.805,15.045-42.145,29.03
				c-5.71,7.775-9.62,16.975-10.625,26.61c-1.155,11.07,1.745,22.25,6.7,32.12c4.88,9.725,11.725,18.395,19.68,25.785
				c3.765,3.285,7.525,6.705,12.08,8.875c10.38,5.19,23.42,4.86,33.32-1.31l0.08-0.165c0.15-0.28,0.455-0.845,0.605-1.125
				c1.77-1.005,3.81-1.375,5.765-1.865c2.165-0.54,4.465-0.745,6.625-0.055c-1.91,0.27-3.915-0.185-5.745,0.52
				c1.39-0.085,2.79-0.195,4.195-0.085c4.63,0.245,8.615,3.015,13.2,3.54c8.035,1.4,16.5201-0.37,23.49-4.56
				c4.975-3.01,8.95-7.335,12.77-11.65c5.205-6.055,9.72-12.745,13.0599-20.015c5.64-11.865,7.785-25.76,4.045-38.515
				c-4.475-15.64-15.99-28.425-29.48-37.07c-14.6-9.39-32.065-14.505-49.455-13.555c-2.545-4.345-4.29-9.265-4.36-14.34
				c-0.2-5.53,1.425-11.105,4.495-15.7c1.14-2.33-1.97-4.66-3.9-2.98c-2.83,3.37-4.015,7.735-5.225,11.87
				c-4.42-7.005-11.305-13.02-19.64-14.575C444.7047-499.377,437.2947-497.7371,430.5197-495.097 M445.1847-425.2171
				c0.11,0.86-0.375,1.675-1.065,2.15c-7.36,4.91-12.46,13.075-13.565,21.86c-1.2,8.97,1.565,17.955,5.53,25.915
				c0.805,1.74,2.02,3.29,2.56,5.145c-0.02,1.505-1.34,2.4-2.68,2.67c-0.835-0.32-1.78-0.615-2.175-1.5
				c-3.645-6.27-6.5-13.08-7.77-20.245c-1.47-7.88-0.68-16.26,2.76-23.545c2.705-5.755,6.94-10.855,12.33-14.275
				C442.5897-428.2371,445.1847-427.1721,445.1847-425.2171z"/>
			<path fill="#F8FFFF" d="M450.9047-486.557c3.615,1.395,7.35,2.52,11.125,3.39c-2.56-3.22-6.395-5.17-10.215-6.495
				c-6.2-1.77-12.44-3.415-18.765-4.675c-0.85-0.21-1.85-0.13-2.53-0.76c-0.075,0.125-0.225,0.365-0.305,0.485
				C437.1447-492.007,444.1697-489.6421,450.9047-486.557z"/>
			<path fill="#FCFFFD" d="M428.7797-412.7671c-3.44,7.285-4.23,15.665-2.76,23.545c1.27,7.165,4.125,13.975,7.77,20.245
				c0.395,0.885,1.34,1.18,2.175,1.5c1.34-0.27,2.66-1.165,2.68-2.67c-0.54-1.855-1.755-3.405-2.56-5.145
				c-3.965-7.96-6.73-16.945-5.53-25.915c1.105-8.785,6.205-16.95,13.565-21.86c0.69-0.475,1.175-1.29,1.065-2.15
				c0-1.955-2.595-3.02-4.075-1.825C435.7197-423.6221,431.4847-418.5221,428.7797-412.7671z"/>
			<path fill="#1D947C" d="M482.1297-339.0171c-0.15,0.28-0.455,0.845-0.605,1.125c2.28-1.195,4.71-2.065,7.25-2.525
				c1.83-0.705,3.835-0.25,5.745-0.52c-2.16-0.69-4.46-0.485-6.625,0.055C485.9397-340.3921,483.8997-340.0221,482.1297-339.0171z"
				/>
			<path fill="#02A288" d="M482.3197-333.8021c-0.785,1.54,0.31,3.24,1.62,4.07c3.035,1.92,6.8,2.11,10.275,1.71
				c2.31-0.395,4.825-1.175,6.25-3.175c0.805-1.34,0.275-3.16-0.995-4.01c-2.895-2.19-6.755-2.465-10.245-2.145
				C486.6897-336.9171,483.6847-336.2221,482.3197-333.8021z"/>
		</g>
		<path fill="#D9E021" d="M226.2447-515.7767c2.47,5.295,6.585,9.74,11.255,13.2c4.08,2.89,9.02,4.735,14.06,4.675
			c5.18,0.2,10.47-0.555,15.23-2.65c0.33,3.965,0.41,8.04,1.805,11.825c0.42,0.68,0.29,1.5,0.22,2.25
			c-3.19,0.065-6.275,1.165-9.23,2.25c-6.18,2.435-11.76,6.395-16.02,11.49c-5.21,5.985-8.29,13.665-9.23,21.485
			c-0.195,3.46,0.245,7.01-0.78,10.365c-0.64,3.53-2.305,6.825-4.435,9.69c-2.17,3.145-5.3999,5.325-7.8899,8.19
			c-6.42,6.665-11.11,14.94-13.795,23.775c-2.51,8.945-2.855,18.435-0.98,27.535c1.775,7.15,4.725,14.085,8.925,20.185
			c9.935,14.585,26.095,24.235,43.15,27.95c10.395,1.87,21.21,2.25,31.555-0.14c18.815-3.74,36.38-15.305,45.88-32.18
			c8.475-14.54,9.785-32.995,3.38-48.55c-3.485-8.77-9.2-16.58-16.22-22.85c-4.51-4.275-7.31-10.28-7.825-16.45
			c-0.0699-3.825,0.215-7.8-0.87-11.48c-0.055-1.22-0.54-2.35-0.72-3.545c-2.21-6.6-5.925-12.765-11.125-17.445
			c-6.52-6.07-15.125-9.905-23.955-10.755c-1.42-0.175-2.98,0.27-4.25-0.52c-3.36-7.945-2.985-17.485,1.56-24.91
			c0.635-1.04,1.51-2.55,0.38-3.58c-0.66-1.02-1.84-1.15-2.935-1c-1.965,1.525-2.835,3.95-3.91,6.1
			c-0.635,1.845-1.42,3.67-1.65,5.625c-0.985-0.08-1.345-1.105-1.915-1.74c-4.62-6.025-11.055-11.18-18.745-12.325
			C240.0647-520.0167,232.5547-519.2667,226.2447-515.7767 M229.0448-515.0817c1.3199,0.06,2.715-0.07,3.955,0.505
			c4.4,0.955,8.74,2.17,13.085,3.34c3.79,0.845,7.325,2.725,10.28,5.23c0.6,0.34,0.73,1.115,0.435,1.71
			c-3.27-1.37-6.855-1.985-10.125-3.42c-5.665-2.6-11.555-4.69-17.405-6.83C229.2148-514.6816,229.0998-514.9467,229.0448-515.0817
			 M250.2997-451.7167c1.17-6.95,5.905-12.955,11.755-16.695c0.4-0.01,1.2-0.025,1.605-0.035c1.805,0.68,2.485,3.415,0.67,4.485
			c-3.62,2.58-6.765,6.04-8.335,10.255c-1.54,4.115-0.835,8.865,1.53,12.525c0.79,1.15-0.185,2.27-0.84,3.185
			c-1.05,0.225-2.115,0.135-3.145-0.045C250.8797-442.0617,249.6997-446.9267,250.2997-451.7167 M240.6947-419.2317
			c0.5,1.09,0.86,2.505-0.145,3.44c-6.915,4.55-12.08,11.875-13.615,20.04c-2.165,10.965,1.63,22.18,7.15,31.615
			c0.75,1.31,0.48,3.46-1.175,3.915c-1.355,0.645-2.71-0.395-3.32-1.555c-4.765-8.365-8.14-17.76-8.26-27.43
			c-0.11-11.73,5.605-23.7,15.615-30.125C238.0298-420.2417,239.6197-420.1167,240.6947-419.2317z"/>
		<path fill="#FFFFF5" d="M229.2697-514.5466c5.85,2.14,11.74,4.23,17.405,6.83c3.27,1.435,6.855,2.05,10.125,3.42
			c0.295-0.595,0.165-1.37-0.435-1.71c-2.955-2.505-6.49-4.385-10.28-5.23c-4.345-1.17-8.685-2.385-13.085-3.34
			c-1.24-0.575-2.635-0.445-3.955-0.505C229.0998-514.9467,229.2148-514.6816,229.2697-514.5466z"/>
		<path fill="#7D8A2E" d="M67.5598-464.7217c0.62,7.165,2.89,14.215,6.85,20.235c6.91,10.585,17.415,18.36,28.7,23.78
			c-4.9901-8.835-9.695-17.84-13.96-27.05c-2.015-4.41-4.4-8.695-5.65-13.415c-1.395-5.32-2.39-10.98-1.155-16.43
			c0.7-0.14,0.81,0.58,1.05,1.07c2.635,6.415,5.9,12.595,7.815,19.285c3.295,11.895,7.915,23.36,11.935,35.015
			c0.065,0.485,0.31,0.835,0.735,1.055c4.215-11.295,6.515-23.64,4.405-35.645c-1.245-7.545-4.72-14.615-9.545-20.51
			c-6.925-8.355-15.94-14.835-25.74-19.41c-0.795,1.175-1.06,2.61-1.605,3.91C68.3348-483.8367,66.7348-474.2267,67.5598-464.7217z"
			/>
		<path fill="#F8FFFD" d="M449.1447-487.2167c4.02,1.86,8.36,2.855,12.575,4.18c-2.13-3.21-5.865-4.945-9.335-6.345
			c-5.32-1.605-10.7-3.06-16.135-4.2c-0.215,0.235-0.64,0.705-0.855,0.94C439.9847-490.8517,444.6597-489.2717,449.1447-487.2167z"
			/>
		<path fill="#FEFFFB" d="M253.5398-438.0417c1.03,0.18,2.095,0.27,3.145,0.045c0.655-0.915,1.63-2.035,0.84-3.185
			c-2.365-3.66-3.07-8.41-1.53-12.525c1.57-4.215,4.715-7.675,8.335-10.255c1.815-1.07,1.135-3.805-0.67-4.485
			c-0.405,0.01-1.205,0.025-1.605,0.035c-5.85,3.74-10.585,9.745-11.755,16.695
			C249.6997-446.9267,250.8797-442.0617,253.5398-438.0417z"/>
		<path fill="#FCFFFE" d="M425.0797-398.2417c-0.355,10.3,3.265,20.345,8.375,29.16c0.57,1.235,2.27,1.95,3.485,1.175
			c1.285-0.615,1.815-2.425,0.935-3.59c-4.585-7.945-8.025-16.9-7.88-26.195c0.125-10.025,5.43-19.81,13.79-25.35
			c1.2-0.675,1.505-2.42,0.66-3.495c-0.81-1.175-2.59-1.32-3.685-0.485C431.1447-420.8567,425.3147-409.5817,425.0797-398.2417z"/>
		<path fill="#FEFFFC" d="M221.3298-389.2067c0.12,9.67,3.495,19.065,8.26,27.43c0.61,1.16,1.965,2.2,3.32,1.555
			c1.655-0.455,1.925-2.605,1.175-3.915c-5.52-9.435-9.315-20.65-7.15-31.615c1.535-8.165,6.7-15.49,13.615-20.04
			c1.005-0.935,0.645-2.35,0.145-3.44c-1.075-0.885-2.665-1.01-3.75-0.1C226.9347-412.9067,221.2198-400.9367,221.3298-389.2067z"/>
		<path fill="#FED34F" d="M70.4548-380.3317c-8.52,7.03-15.675,16.255-18.38,27.12c-1.72,7.45-1.29,15.705,2.64,22.415
			c1.395,2.115,2.815,4.21,4.36,6.22c2.95,3.565,6.905,6.27,11.01,8.37c9.7,4.89,20.81,5.97,31.51,5.075
			c18.14-1.875,35.825-10.335,47.91-24.145c5.98-7.33,10.855-16.24,10.94-25.915c0.335-1.18,0.305-2.355-0.045-3.525
			c-0.105-6.175-2.725-12.095-6.465-16.935c-6.315-7.875-15.98-12.38-25.745-14.17c-6.125-1.12-12.41-0.805-18.6-0.595
			C95.4048-394.8717,81.6248-389.2617,70.4548-380.3317 M102.5748-392.7967c3.245-0.89,7.475,0.095,8.72,3.575
			c0.105,3.36-0.77,6.65-1.16,9.975c-0.87,6.345-1.87,12.71-2.775,19.045c0.2549,1.44-1.125,2.96-2.585,2.73
			c-1.005-0.085-1.62-1.015-2.33-1.61c-6.465-5.19-12.985-10.31-19.425-15.52c-1.6-0.96-2.85-2.735-2.73-4.65
			c0.345-2.705,2.215-4.965,4.58-6.25C90.3198-388.8617,96.2598-391.6217,102.5748-392.7967 M123.0098-388.2967
			c3.05-3.525,8.435-4.07,12.6-2.415c4.9449,1.7,10.105,4.015,13.1949,8.435c0.42,2.055,0.17,4.355-1.375,5.9
			c-1.805,2.27-4.63,3.16-7.075,4.515c-8.5,4.035-16.84,8.39-25.335,12.43c-1.805,0.815-3.45,2.5-5.605,2
			c-0.15-0.315-0.455-0.945-0.605-1.255c4.19-8.755,8.135-17.66,12.2-26.485C121.4998-386.3167,122.0398-387.4717,123.0098-388.2967
			 M61.5998-363.6767c2.205-4.16,7.485-6.33,11.98-5.045c9.695,3.89,19.235,8.23,28.96,12.015c0.21,0.175,0.64,0.52,0.855,0.695
			c0.205,2.28-2.66,2.655-4.33,2.9c-10.005,2.85-20.02,5.645-30.005,8.55c-2.745,0.795-5.855,1.16-8.52-0.095
			c-0.91-0.68-1.635-1.585-2.235-2.535C57.7048-352.8717,58.7448-358.7067,61.5998-363.6767 M146.0448-365.9917
			c2.985-0.795,6.85-0.76,8.835,2c1.38,1.625,0.875,3.85,0.94,5.805c-0.57,4.52-1.78,9.085-4.32,12.925
			c-1.975,2.595-5.215,4.015-8.42,4.22c-2.93,0.005-5.435-1.66-8.095-2.63c-7.3-3.095-14.615-6.135-21.935-9.165
			c-1.18-0.215-2.1899-0.845-2.825-1.855c0.485-0.78,1.095-1.535,2.035-1.775
			C123.5648-359.4617,134.7997-362.7767,146.0448-365.9917 M103.7448-352.9067c1.18-0.095,1.325,1.325,1.105,2.19
			c-2.2,3.685-3.66,7.755-5.56,11.6c-2.295,4.92-4.485,9.89-6.81,14.795c-1.275,3.235-4.64,5.025-7.855,5.8
			c-3.53,0.5-6.785-1.205-10.03-2.3c-3.37-1.52-6.65-3.525-9.05-6.38c-1.405-2.115-0.625-4.92,0.94-6.715
			c1.275-1.81,3.44-2.515,5.315-3.51c10.07-5.12,20.345-9.865,30.345-15.125C102.6498-352.7767,103.1798-352.8967,103.7448-352.9067
			 M110.2398-352.3717c3.27,3.28,7.17,5.835,10.66,8.87c3.595,2.73,6.99,5.705,10.65,8.355c1.36,1.03,2.125,2.715,1.845,4.43
			c0.1,2.325-1.615,4.18-3.455,5.345c-4.28,2.91-9.01,5.145-13.905,6.815c-2.765,0.665-5.55,1.905-8.445,1.38
			c-1.875-0.27-3.835-1.27-4.72-2.99c-0.425-2.655-0.1-5.38,0.395-8c1.01-7.56,2.485-15.075,3.17-22.66
			c0.27-0.57,0.66-1.07,1.02-1.59C108.3698-352.5617,109.3248-352.6417,110.2398-352.3717z"/>
		<path fill="#FCFFF6" d="M84.8698-385.5017c-2.365,1.285-4.235,3.545-4.58,6.25c-0.12,1.915,1.13,3.69,2.73,4.65
			c6.44,5.21,12.96,10.33,19.425,15.52c0.71,0.595,1.325,1.525,2.33,1.61c1.46,0.23,2.84-1.29,2.585-2.73
			c0.905-6.335,1.905-12.7,2.775-19.045c0.39-3.325,1.265-6.615,1.16-9.975c-1.2451-3.48-5.475-4.465-8.72-3.575
			C96.2598-391.6217,90.3198-388.8617,84.8698-385.5017z"/>
		<path fill="#FCFFF6" d="M121.0098-385.1717c-4.065,8.825-8.01,17.73-12.2,26.485c0.15,0.31,0.455,0.94,0.605,1.255
			c2.155,0.5,3.8-1.185,5.605-2c8.495-4.04,16.835-8.395,25.335-12.43c2.4449-1.355,5.27-2.245,7.075-4.515
			c1.545-1.545,1.795-3.845,1.375-5.9c-3.09-4.42-8.25-6.735-13.1949-8.435c-4.165-1.655-9.55-1.11-12.6,2.415
			C122.0398-387.4717,121.4998-386.3167,121.0098-385.1717z"/>
		<path fill="#FFD34E" d="M161.0348-373.0117c0.8,2.415,2.015,4.725,2.32,7.28c0.935,3.415,0.535,7.03,0.485,10.535
			c-1.7,13-9.92,24.225-19.88,32.35c-11.615,9.3-26.02,15.085-40.815,16.435c-2.85,0.05-5.695,0.65-8.54,0.21
			c-2.165-0.36-4.41,0.065-6.52-0.605c-11.045-1.395-22.075-6.385-29.045-15.305c-1.605-1.625-2.685-3.655-3.73-5.66
			c-0.045,0.725-0.075,1.455-0.095,2.19c0.615,4.74,1.99,9.445,3.88,13.845c7.56,18.89,25.19,33.725,45.45,36.77
			c5.935,1.21,12.045,0.38,18.055,0.545c3.41,0.22,6.27,2.275,8.9499,4.215c1.02,0.85,2.355,1.02,3.58,1.445
			c5.43,1.48,11.81-1.565,13.635-7.005c0.235-1.82,0.56-3.625,0.525-5.46c0.54-4.29,3.11-8.11,6.425-10.795
			c8.475-8.82,14.415-20.13,16.595-32.18c1.3-5.73,1.08-11.665,0.945-17.51c-0.795-8.97-3.465-17.82-7.89-25.695
			c-1.68-2.875-3.34-5.85-5.73-8.195C160.0998-374.7417,160.7248-373.9567,161.0348-373.0117z"/>
		<path fill="#FCFFF6" d="M58.3048-347.1917c0.6,0.95,1.325,1.855,2.235,2.535c2.665,1.255,5.775,0.89,8.52,0.095
			c9.985-2.905,20-5.7,30.005-8.55c1.67-0.245,4.535-0.62,4.33-2.9c-0.215-0.175-0.645-0.52-0.855-0.695
			c-9.725-3.785-19.265-8.125-28.96-12.015c-4.495-1.285-9.775,0.885-11.98,5.045
			C58.7448-358.7067,57.7048-352.8717,58.3048-347.1917z"/>
		<path fill="#FCFFF6" d="M112.2598-356.4667c-0.94,0.24-1.55,0.995-2.035,1.775c0.635,1.01,1.645,1.64,2.825,1.855
			c7.32,3.03,14.635,6.07,21.935,9.165c2.66,0.97,5.165,2.635,8.095,2.63c3.205-0.205,6.445-1.625,8.42-4.22
			c2.54-3.84,3.75-8.405,4.32-12.925c-0.065-1.955,0.44-4.18-0.94-5.805c-1.985-2.76-5.85-2.795-8.835-2
			C134.7997-362.7767,123.5648-359.4617,112.2598-356.4667z"/>
		<path fill="#FCFFF6" d="M102.1448-352.5517c-10,5.26-20.275,10.005-30.345,15.125c-1.875,0.995-4.04,1.7-5.315,3.51
			c-1.565,1.795-2.345,4.6-0.94,6.715c2.4,2.855,5.68,4.86,9.05,6.38c3.245,1.095,6.5,2.8,10.03,2.3
			c3.215-0.775,6.58-2.565,7.855-5.8c2.325-4.905,4.515-9.875,6.81-14.795c1.9-3.845,3.36-7.915,5.56-11.6
			c0.22-0.865,0.075-2.285-1.105-2.19C103.1798-352.8967,102.6498-352.7767,102.1448-352.5517z"/>
		<path fill="#FCFFF6" d="M106.4348-350.8267c-0.685,7.585-2.16,15.1-3.17,22.66c-0.495,2.62-0.82,5.345-0.395,8
			c0.885,1.72,2.845,2.72,4.72,2.99c2.895,0.525,5.68-0.715,8.445-1.38c4.895-1.67,9.625-3.905,13.905-6.815
			c1.84-1.165,3.555-3.02,3.455-5.345c0.28-1.715-0.485-3.4-1.845-4.43c-3.66-2.65-7.055-5.625-10.65-8.355
			c-3.49-3.035-7.39-5.59-10.66-8.87c-0.915-0.27-1.87-0.19-2.785-0.045C107.0948-351.8967,106.7048-351.3967,106.4348-350.8267z"/>
		<path fill="#F4E4B0" d="M55.2148-325.5817c0.02-0.735,0.05-1.465,0.095-2.19c1.045,2.005,2.125,4.035,3.73,5.66
			c-0.155-0.84-0.73-1.745,0.035-2.465c-1.545-2.01-2.965-4.105-4.36-6.22C53.9248-329.1417,54.4198-327.1167,55.2148-325.5817z"/>
		<path fill="#468966" d="M338.7847-319.0867c-0.155,0.54-0.375,1.045-0.66,1.52c4.895,8.51,11.21,16.31,19.06,22.26
			c6.605,5.085,14.52,8.495,22.825,9.47c12.58,1.49,25.33-1.37,36.875-6.33c-4.26-8.19-10.225-15.53-17.27-21.495
			c-7.075-6.01-15.8-10.19-25.0699-11.245C362.3647-326.3767,350.0547-323.6317,338.7847-319.0867 M339.8347-318.3667
			c9.78,1.91,19.48,4.21,29.085,6.875c5.2,1.36,10.5049,2.615,15.285,5.165c3.635,1.845,7.15,4.035,10.05,6.935
			c0.585,0.705,1.405,1.33,1.57,2.3c-4.895-1.32-9.76-2.795-14.6-4.31c-5.045-1.505-9.715-3.985-14.585-5.925
			c-6.325-2.545-12.735-4.865-19.115-7.255c-2.95-1.065-5.85-2.305-8.86-3.165
			C339.0247-317.9967,339.4147-318.2017,339.8347-318.3667z"/>
		<path fill="#FCFEFD" d="M347.5247-314.5817c6.38,2.39,12.79,4.71,19.115,7.255c4.87,1.94,9.54,4.42,14.585,5.925
			c4.84,1.515,9.705,2.99,14.6,4.31c-0.165-0.97-0.985-1.595-1.57-2.3c-2.9-2.9-6.415-5.09-10.05-6.935
			c-4.78-2.55-10.085-3.805-15.285-5.165c-9.605-2.665-19.3051-4.965-29.085-6.875c-0.42,0.165-0.81,0.37-1.17,0.62
			C341.6747-316.8867,344.5747-315.6467,347.5247-314.5817z"/>
		<path fill="#DC3622" d="M276.2248-284.3167c2.195-0.055,4.395-0.205,6.6-0.195c0.065-3.645,0.18-7.325,1.04-10.885
			c0.41-1.57,0.8-3.275,2.07-4.4c-1.14-1.875-2.205-3.795-3.34-5.675c-1.805,1.11-3.2,2.835-4.01,4.785
			C276.3347-295.5567,276.1098-289.8367,276.2248-284.3167z"/>
		<path fill="#DC3522" d="M261.7348-268.5517c-6.16,8.975-6.71,21.295-1.665,30.9c8.33-0.465,16.78,2.38,22.985,7.995
			c1.06,1.13,2.955,1.735,4.27,0.66c2.415-1.91,3.97-4.65,6.2-6.76c3.225-3.5,7.435-5.99,11.995-7.31c-0.25-0.075-0.75-0.22-1-0.295
			c3.81-1.565,8-1.56,12.055-1.415c1.03,0.245,1.505-0.69,1.955-1.415c0.06,0.24,0.18,0.72,0.24,0.965
			c1.895-8.395,0.01-17.59-5.17-24.485c-5.815-7.995-15.615-12.915-25.505-12.765
			C277.7148-282.6517,267.4397-277.2317,261.7348-268.5517 M287.2097-264.8717c-1.07,0.115-2.135,0.185-3.195,0.23
			c5.085-0.395,9.88,3.91,10.145,8.98c0.345,3.925-2.045,7.825-5.595,9.465c-4.19,1.995-9.71,0.75-12.42-3.075
			c-2.9-3.85-2.295-9.735,1.34-12.895c-0.285-0.915,0.775-1.32,1.355-1.755C281.2898-265.3817,284.5147-266.0717,287.2097-264.8717z
			"/>
		<path fill="#B94133" d="M277.4848-262.1667c1.8199-1.51,4.125-2.545,6.53-2.475c1.06-0.045,2.125-0.115,3.195-0.23
			c-2.695-1.2-5.92-0.51-8.37,0.95C278.2597-263.4867,277.1997-263.0817,277.4848-262.1667z"/>
		<path fill="#FEFDFC" d="M277.4848-262.1667c-3.635,3.16-4.2401,9.045-1.34,12.895c2.71,3.825,8.23,5.07,12.42,3.075
			c3.55-1.64,5.94-5.54,5.595-9.465c-0.265-5.07-5.06-9.375-10.145-8.98C281.6098-264.7117,279.3047-263.6767,277.4848-262.1667
			 M284.5747-259.5617c3.03-0.01,5.335,3.535,4.015,6.295l-0.225,0.01l0.11,0.53c-1,1.43-2.625,2.5-4.415,2.365
			c-2.54,0.005-4.745-2.355-4.58-4.885C279.6297-257.7718,282.0247-259.8967,284.5747-259.5617z"/>
		<path fill="#DC3523" d="M284.0597-250.3617c1.79,0.135,3.415-0.935,4.415-2.365l-0.11-0.53c-0.33-1.105-0.59-2.295-0.205-3.415
			c0.91,0.815,0.355,2.31,0.43,3.405c1.32-2.76-0.985-6.305-4.015-6.295c-2.55-0.335-4.945,1.79-5.095,4.315
			C279.3147-252.7168,281.5197-250.3567,284.0597-250.3617z"/>
		<path fill="#468966" d="M74.4398-240.3717c-5.215,6.98-8.785,15.35-9.28,24.11c-0.86,12.135,2.75,24.17,8.17,34.92
			c0.13,0.035,0.395,0.11,0.525,0.145c1.395-12.29,4.03-24.39,6.65-36.46c1.2-5.645,3.605-11.005,6.78-15.805
			c1.375-1.835,2.71-3.93,4.795-5.01c-0.65,4.31-2.005,8.505-2.93,12.77c-1.455,6.44-4.38,12.39-6.385,18.655
			c-2.115,6.125-3.97,12.34-5.99,18.5c-0.74,2.67-1.815,5.25-2.37,7.96c8.425-5.22,16.08-11.875,21.8-20.015
			c5.03-7.03,8.185-15.465,8.47-24.135c0.47-12.035-3.14-23.925-8.73-34.485c-0.65-0.06-1.125,0.47-1.65,0.75
			C86.7148-253.6367,79.8398-247.5867,74.4398-240.3717z"/>
		<path fill="#B02D1E" d="M288.3647-253.2567l0.225-0.01c-0.075-1.095,0.48-2.59-0.43-3.405
			C287.7747-255.5517,288.0348-254.3617,288.3647-253.2567z"/>
		<path fill="#B63D2F" d="M304.5197-243.3617c0.25,0.075,0.75,0.22,1,0.295c4.295-1.055,8.74-1.27,13.14-0.92
			c0.03-0.31,0.08-0.93,0.11-1.24c-0.06-0.245-0.18-0.725-0.24-0.965c-0.45,0.725-0.925,1.66-1.955,1.415
			C312.5197-244.9217,308.3297-244.9267,304.5197-243.3617z"/>
		<path fill="#DC3522" d="M293.3047-229.5218c-1.435,1.495-3.18,3.05-3.875,4.965c-0.02,0.235-0.065,0.7-0.09,0.93
			c2.53,2.585,4.88,5.415,6.45,8.705c4.84,9.245,4.205,21.045-1.51,29.765c7.61,6.92,18.68,9.675,28.6599,7.245
			c8.005-1.83,15.23-6.93,19.525-13.95c5.585-8.81,6.1-20.63,1.165-29.845c-4.335-8.635-13.01-14.835-22.505-16.42
			C311.1897-239.8768,300.4098-236.7717,293.3047-229.5218 M337.4947-210.1118c1.535,5.295-2.545,11.14-7.93,11.87
			c-4.965,0.99-10.34-2.41-11.415-7.39c-1.25-4.625,1.685-9.705,6.12-11.305C329.5647-219.0717,336.3197-215.7818,337.4947-210.1118
			z"/>
		<path fill="#DC3522" d="M258.7647-231.9167c-8.915,1.095-17.305,6.11-22.285,13.62c-5.98,8.66-6.845,20.51-2.235,29.965
			c3.885,8.195,11.555,14.44,20.325,16.695c8.57,2.29,18.07,0.805,25.505-4.045c7.72-4.885,13.06-13.4,13.93-22.51
			c1.075-9.11-2.405-18.575-9.015-24.92C278.2097-229.8867,268.2447-233.0868,258.7647-231.9167 M260.8647-196.4117
			c2.64,1.795,4.415,4.975,4.15,8.205c0.165,5.38-5.135,9.98-10.415,9.445c-5.51-0.03-10.195-5.45-9.32-10.92
			c0.425-3.835,3.415-7.11,7.1-8.13C255.2298-198.5618,258.4397-198.1468,260.8647-196.4117z"/>
		<path fill="#DC3622" d="M347.5447-219.1418c0.775,0.34,1.6349-0.135,2.45-0.195c3.33-0.525,6.72-0.695,10.09-0.445
			c1.215,0.175,2.445,0.445,3.5,1.13c1.265-0.905,2.405-1.975,3.66-2.9c0.505-0.43,1.17-0.765,1.355-1.46
			c-2.185-2.035-5.115-3-8.035-3.305c-4.77-0.375-9.58-0.025-14.255,0.96C346.7697-223.2968,347.3197-221.2468,347.5447-219.1418z"
			/>
		<path fill="#A54740" d="M289.0147-223.6617l0.325,0.035c0.025-0.23,0.07-0.695,0.09-0.93l-0.365-0.02
			C289.0497-224.3517,289.0298-223.8918,289.0147-223.6617z"/>
		<path fill="#FEFEFC" d="M324.2697-216.9368c-4.435,1.6-7.37,6.68-6.12,11.305c1.075,4.98,6.45,8.38,11.415,7.39
			c5.385-0.73,9.465-6.575,7.93-11.87C336.3197-215.7818,329.5647-219.0717,324.2697-216.9368 M332.4647-207.1917
			c-0.23,3.955-5.95,5.32-8.285,2.315c-2.235-2.5-0.6949-6.96,2.64-7.485C329.8397-213.1768,333.1047-210.3268,332.4647-207.1917z"
			/>
		<path fill="#DB3621" d="M324.1797-204.8768c2.335,3.005,8.0551,1.64,8.285-2.315c0.64-3.135-2.625-5.985-5.645-5.17
			C323.4847-211.8368,321.9447-207.3768,324.1797-204.8768z"/>
		<path fill="#DC3522" d="M188.7348-200.0468c6.1349,0.815,12.12,2.62,18.12,4.155c4.905,1.24,9.915,3.37,13.17,7.4
			c-4.735-1.285-9.52-2.555-13.95-4.7c-5.35-2.33-10.91-4.12-16.3-6.33c-0.205,0.185-0.61,0.555-0.815,0.735l-0.045,0.365
			c3.94,6.03,9.075,11.69,15.8849,14.47c8.575,3.44,18.26,1.725,26.535-1.755c-0.22-1.055-0.96-1.89-1.475-2.8
			c-3.69-5.665-8.66-10.775-14.975-13.44c-8.33-3.545-17.86-1.96-26.015,1.31L188.7348-200.0468z"/>
		<path fill="#FFFBFD" d="M188.6498-198.6667l0.31-0.12c0.205-0.18,0.61-0.55,0.815-0.735c5.39,2.21,10.95,4,16.3,6.33
			c4.43,2.145,9.215,3.415,13.95,4.7c-3.255-4.03-8.265-6.16-13.17-7.4c-6-1.535-11.985-3.34-18.12-4.155l0.1349-0.59
			c-0.355,0.245-0.7,0.505-1.035,0.765C188.0348-199.5667,188.4447-198.9668,188.6498-198.6667z"/>
		<path fill="#FEFDFC" d="M252.3797-197.8118c-3.685,1.02-6.675,4.295-7.1,8.13c-0.875,5.47,3.81,10.89,9.32,10.92
			c5.28,0.535,10.58-4.065,10.415-9.445c0.265-3.23-1.51-6.41-4.15-8.205C258.4397-198.1468,255.2298-198.5618,252.3797-197.8118
			 M259.8598-188.7318c0.4449,3.64-4.095,6.18-7.1,4.295c-3.105-1.565-3.09-6.475,0.025-8.03
			C255.5847-194.1818,259.8297-192.1268,259.8598-188.7318z"/>
		<path fill="#DC3523" d="M252.7597-184.4368c3.005,1.885,7.545-0.655,7.1-4.295c-0.03-3.395-4.275-5.45-7.075-3.735
			C249.6698-190.9117,249.6548-186.0018,252.7597-184.4368z"/>
		<path fill="#0077A2" d="M329.9347-138.9118c-3.07,5.115-4.245,11.125-4.49,17.02c-2.86-2.94-6.16-5.5-9.895-7.22
			c-0.7-0.38-1.49-0.2-2.215-0.145l-0.025,0.215c0,0.68-0.385,1.265-0.575,1.905c-0.265,1.065,1.485,1.645,1.075,2.705
			c5.565,2.845,10.265,7.55,12.775,13.3c-7.76,2-14.795,6.36-20.42,12.025c-7.055,7.12-11.97,16.225-14.55,25.885
			c-4.995,18.64-1.565,39.74,10.36,55.115c6.495,8.35,15.6649,14.89,26.0999,17.145c1.565-0.05,3.04-0.72,4.55-1.125
			c12.26-4.115,22.085-13.83,27.815-25.26c10.28-20.415,8.79-46.5-4.505-65.22c-5.825-8.155-14.025-14.735-23.59-17.905
			c-1.015-2.94-2.495-5.7-4.26-8.255c7.175-1.225,14.32-4.205,19.415-9.535c5.915-6.45,7.67-15.57,7.425-24.07
			c-0.325-0.1-0.98-0.305-1.31-0.405C344.4797-151.2118,334.8297-147.2368,329.9347-138.9118 M354.4147-152.4118
			c-2.06,3.185-4.67,6.05-6.945,9.105c-3.215,3.835-5.655,8.255-9.065,11.93c-1.365,1.5-2.73,2.995-4.07,4.515
			c-0.14,0.025-0.41,0.08-0.55,0.11c0.755-4.135,2.92-7.915,5.695-11.03c3.8-4.035,7.615-8.07,11.68-11.845
			C352.2347-150.5618,353.1447-151.7218,354.4147-152.4118z"/>
		<path fill="#F9FFFC" d="M339.4797-137.7818c-2.775,3.115-4.94,6.895-5.695,11.03c0.14-0.03,0.41-0.085,0.55-0.11
			c1.34-1.52,2.705-3.015,4.07-4.515c3.41-3.675,5.85-8.095,9.065-11.93c2.275-3.055,4.885-5.92,6.945-9.105
			c-1.27,0.69-2.18,1.85-3.255,2.785C347.0947-145.8518,343.2797-141.8168,339.4797-137.7818z"/>
		<path fill="#116480" d="M312.7347-127.1368c0.1899-0.64,0.575-1.225,0.575-1.905c-2.155,0.8-1.69,4.16,0.5,4.61
			C314.2197-125.4918,312.4697-126.0718,312.7347-127.1368z"/>
		<path fill="#193440" d="M23.2548-118.3318c1.73,3.415,4.155,6.42,6.78,9.185c1.34-1.27,2.7-2.525,4.075-3.76
			c-2.01-2.135-3.87-4.43-5.34-6.97c-0.715-1.305-1.54-2.67-1.385-4.215c-1.79-0.495-3.535-1.14-5.285-1.745
			C21.3798-123.2968,22.1198-120.6318,23.2548-118.3318z"/>
		<path fill="#193340" d="M34.8698-110.4468c-5.39,7.195-6.415,17.345-2.535,25.46c4.08,9.065,13.835,15.155,23.765,14.915
			c0.705-3.76,2.34-7.32,4.64-10.37c4.865-6.555,12.97-10.34,21.08-10.375c0.75-4.995,0.38-10.245-1.76-14.87
			c-3.47-8.045-11.335-13.925-19.995-15.115C50.6198-122.3618,40.4448-118.2518,34.8698-110.4468 M58.8248-102.3118
			c-0.94,4.895-6.81,7.715-11.3,5.73c-3.375-1.305-5.585-5.06-4.97-8.64c0.515-3.89,4.175-6.92,8.055-6.95
			C55.6348-112.3918,60.1448-107.2818,58.8248-102.3118z"/>
		<path fill="#468966" d="M158.2898-111.4218c10.905,1.91,21.655,4.595,32.32,7.55c4.715,1.205,9.48,2.455,13.785,4.8
			c4.315,2.285,8.76,4.905,11.56,9.025l-0.73,0.005c-5.05-1.545-10.155-2.925-15.17-4.59c-4.86-1.605-9.41-3.99-14.17-5.84
			c-9.285-3.635-18.645-7.08-28.005-10.51c4.915,8.96,11.575,17.075,19.8,23.195c7.165,5.445,15.895,8.78,24.89,9.37
			c11.77,0.75,23.64-1.86,34.36-6.685c-3.81-7.015-8.715-13.445-14.5249-18.925c-6.63-6.305-14.805-11.195-23.83-13.05
			c-11.55-2.325-23.585-0.6-34.615,3.23C162.0698-113.0618,159.9398-112.6468,158.2898-111.4218z"/>
		<path fill="#FEFEFD" d="M50.6098-112.1718c-3.88,0.03-7.54,3.06-8.055,6.95c-0.615,3.58,1.595,7.335,4.97,8.64
			c4.49,1.985,10.36-0.835,11.3-5.73C60.1448-107.2818,55.6348-112.3918,50.6098-112.1718 M49.5298-107.5468
			c0.665-0.485,1.355-0.515,2.065-0.1c2.58,0.035,3.97,3.795,2.39,5.8c-1.7,2.66-6.435,1.89-7.055-1.255
			c-0.585-1.89,0.675-3.72,2.29-4.605L49.5298-107.5468z"/>
		<path fill="#0077A2" d="M340.5947-108.7268c13.935,6.275,23.78,19.59,27.975,34.05c5.785,19.55,2.065,42.105-11.085,57.925
			c-6.405,7.755-15.2401,13.53-25.07,15.83c8.91,1.94,18.485,0.8,26.665-3.2549c9.535-4.595,17.14-12.64,22.12-21.895
			c9.98-18.69,9.87-42.38-0.35-60.945c-4.68-8.44-11.53-15.8-20.065-20.4c-8.525-4.755-18.69-6.06-28.23-4.265
			C335.1247-110.5168,338.0397-110.0418,340.5947-108.7268z"/>
		<path fill="#193440" d="M46.9298-103.1018c0.62,3.145,5.355,3.915,7.055,1.255c1.58-2.005,0.19-5.765-2.39-5.8
			c-0.57,0.615-1.435,0.55-2.065,0.1l-0.31-0.16C47.6048-106.8218,46.3448-104.9918,46.9298-103.1018z"/>
		<path fill="#05181F" d="M51.5948-107.6468c-0.71-0.415-1.4-0.385-2.065,0.1C50.1598-107.0968,51.0248-107.0318,51.5948-107.6468z"
			/>
		<path fill="#193340" d="M62.3448-76.4518c-5.35,7.39-6.175,17.8-1.95,25.91c3.655,7.38,11.085,12.695,19.225,13.875
			c9.1,1.575,18.9-2.125,24.655-9.35c5.44-6.615,7.11-16.095,4.205-24.155c-3.125-9.22-11.96-16.1299-21.635-17.035
			c-1.915,0.74-4.13,0.745-6.035-0.02C73.5048-86.5018,66.5798-82.4618,62.3448-76.4518 M104.6348-63.1918
			c0.685,4.475-3.09,8.805-7.55,9c-3.845,0.395-7.78-2.27-8.67-6.06c-1.18-4,1.43-8.445,5.345-9.675
			C98.4498-71.6618,104.2198-68.2418,104.6348-63.1918z"/>
		<path fill="#04161D" d="M86.8448-87.2068c-2.005-0.225-4.03-0.19-6.035-0.02C82.7148-86.4618,84.9298-86.4668,86.8448-87.2068z"/>
		<path fill="#7D8A2E" d="M472.2747-80.9818c-7.055,3.285-13.17,8.4901-17.635,14.86c-6.22,8.605-9.71,18.865-11.755,29.1999
			c0.245,0.35,0.535,0.675,0.87,0.98c7.46,0.375,15,0.125,22.325-1.475c8.685-1.84,17.2-5.405,23.85-11.415
			c7.7-6.9,12.78-16.3,15.94-26.05c1.16-3.88,2.35-7.81,2.655-11.865C496.2447-87.6568,483.5097-86.2618,472.2747-80.9818
			 M492.6197-72.1618c-0.115,0.51-0.3849,0.905-0.815,1.19c-3.645,2.825-7.09,5.9-10.75,8.71c-3.59,2.91-7.6349,5.17-11.505,7.675
			c-7.915,5.32-15.625,10.94-23.405,16.455c-0.705,0.49-1.47,0.935-1.975,1.65c-0.31-0.27-0.6-0.54-0.875-0.81
			c0.95,0.135,1.15-0.97,1.8-1.4c7.035-7,14.39-13.67,21.94-20.1c3.035-2.64,5.995-5.41,9.45-7.5
			c4.225-2.52,8.72-4.7649,13.585-5.725C490.9047-72.1018,491.7697-72.4568,492.6197-72.1618z"/>
		<path fill="#193340" d="M23.9548-79.8668c-7.255,3.75-12.55,11.22-13.415,19.365c0.8,1.91,0.78,4.22-0.015,6.135
			c0.385,3.965,1.92,7.81,4.14,11.115c4.875,7.29,13.665,11.705,22.415,11.35c8.72-0.065,17.155-4.92,21.725-12.325
			c-4.205-5.66-5.65-13.115-4.215-19.985c0.45-2.04-1.8-3.015-3.455-3.1c-4.55-0.5-9.27-1.2-13.165-3.79
			c-4.13-2.56-7.04-6.61-9.35-10.79C27.0548-81.2368,25.4348-80.7018,23.9548-79.8668 M43.9798-53.7218
			c0.39,4.425-3.56,8.43-7.92,8.485c-4.21,0.2451-8.36-3.185-8.555-7.47c-0.39-3.685,2.17-7.305,5.695-8.345
			C38.0598-62.7668,43.9598-58.9768,43.9798-53.7218z"/>
		<path fill="#FFFFFB" d="M476.4847-66.2918c-3.455,2.09-6.415,4.86-9.45,7.5c-7.55,6.43-14.905,13.1-21.94,20.1
			c-0.65,0.43-0.85,1.535-1.8,1.4c0.275,0.27,0.565,0.54,0.875,0.81c0.5049-0.715,1.27-1.16,1.975-1.65
			c7.78-5.515,15.49-11.135,23.405-16.455c3.8701-2.505,7.915-4.765,11.505-7.675c3.66-2.81,7.105-5.885,10.75-8.71
			c0.4301-0.285,0.7-0.68,0.815-1.19c-0.85-0.295-1.715,0.06-2.55,0.145C485.2047-71.0568,480.7097-68.8118,476.4847-66.2918z"/>
		<path fill="#FDFEFD" d="M93.7598-69.9268c-3.915,1.23-6.525,5.675-5.345,9.675c0.89,3.79,4.8249,6.455,8.67,6.06
			c4.46-0.195,8.235-4.525,7.55-9C104.2198-68.2418,98.4498-71.6618,93.7598-69.9268 M99.9248-63.9968
			c1.01,1.775,0.195,4.215-1.605,5.13c-2.24,1.2599-5.49-0.215-5.77-2.815c-0.35-1.88,0.96-3.745,2.75-4.275
			C97.0448-66.4868,99.1298-65.6768,99.9248-63.9968z"/>
		<path fill="#1A3441" d="M92.5498-61.6818c0.28,2.6,3.53,4.075,5.77,2.815c1.8-0.915,2.615-3.355,1.605-5.13
			c-0.795-1.68-2.8799-2.4901-4.625-1.96C93.5098-65.4268,92.1998-63.5618,92.5498-61.6818z"/>
		<path fill="#FDFEFD" d="M33.1998-61.0518c-3.525,1.04-6.085,4.66-5.695,8.345c0.195,4.285,4.345,7.715,8.555,7.47
			c4.36-0.055,8.31-4.06,7.92-8.485C43.9598-58.9768,38.0598-62.7668,33.1998-61.0518 M39.6148-52.6618
			c-0.415,3.125-4.945,4.255-6.865,1.805c-1.78-1.85-0.88-5.29,1.555-6.06C36.9548-58.1068,40.2848-55.5618,39.6148-52.6618z"/>
		<path fill="#071A23" d="M10.5248-54.3668c0.795-1.915,0.815-4.225,0.015-6.135C10.2648-58.4768,10.2598-56.4018,10.5248-54.3668z"
			/>
		<path fill="#1A3440" d="M32.7498-50.8568c1.92,2.45,6.45,1.32,6.865-1.805c0.67-2.9-2.66-5.445-5.31-4.255
			C31.8698-56.1468,30.9698-52.7068,32.7498-50.8568z"/>
		<path fill="#193340" d="M104.9098-25.6068c1.95,6.06,6.535,10.915,11.665,14.5c0.44,0.395,0.925,0.005,1.175-0.41
			c2.64-4.965,4.455-10.56,4.05-16.24c-0.605-8.195-6.525-14.99-13.1899-19.245C104.9648-40.6368,102.6548-32.8418,104.9098-25.6068
			 M112.6498-34.6768c1.515,4.5099,1.715,9.285,2.695,13.91c0.545,3.19,1.325,6.34,1.835,9.535
			c-0.71-0.64-0.8849-1.605-1.1949-2.4449c-1.76-4.91-3.335-9.895-4.69-14.93c-0.53-2.995-0.76-6.245,0.33-9.14
			C112.3848-36.9868,112.1748-35.6418,112.6498-34.6768z"/>
		<path fill="#193440" d="M2.6348-34.9568c-0.85,1.59-1.71,3.175-2.635,4.72c1.85,1.05,4.07,0.89,6.1,0.605
			c4.315-0.89,8.225-3.025,11.955-5.29c-0.9-1.615-2.065-3.065-3.06-4.62c-2.585,1.635-5.32,3.055-8.21,4.06
			C5.4498-35.0768,4.0398-34.5718,2.6348-34.9568z"/>
		<path fill="#FBFEFE" d="M111.2948-28.6068c1.355,5.035,2.93,10.02,4.69,14.93c0.31,0.84,0.485,1.805,1.1949,2.4449
			c-0.5099-3.1949-1.29-6.345-1.835-9.535c-0.98-4.625-1.18-9.4-2.695-13.91c-0.475-0.965-0.265-2.3101-1.025-3.07
			C110.5348-34.8518,110.7648-31.6018,111.2948-28.6068z"/>
		<g>
			<path fill="#E79202" d="M429.383-253.7567c-12.485,8.705-23.155,21.155-26.75,36.225c-1.175,4.72-1.025,9.645-0.705,14.465
				c0.96,6.885,4.01,13.465,8.605,18.68c4.84,5.595,11.275,9.65,18.12,12.35c7.48,2.86,15.485,4.335,23.495,4.315
				c10.83,0.23,21.7199-1.79,31.805-5.685c0.525-0.78,1.37-1.19,2.2-1.565c4.025-2.26,8.51-3.625,12.375-6.18
				c0.97-0.935,2.33-1.225,3.355-2.08c4.82-3.815,10.115-7.205,13.835-12.2c2.475-1.915,4.135-4.6,6.0099-7.06
				c1.425-1.87,2.33-4.06,3.64-6.005c0.085,0.235,0.26,0.705,0.345,0.94c0.325-0.89,1.01-1.67,1.195-2.58
				c-0.61-2.065,0.785-4.135,1.69-5.865c0.17-1.22,0.5-2.39,0.94-3.53c0.295-1.68,0.28-3.415,0.865-5.04
				c0.725-4.595,0.1151-9.27-1.0099-13.745c-0.735-2.285-1.91-4.49-1.895-6.945c-0.175-1.165-1.065-2.05-1.57-3.075
				c-3.835-6.205-9.595-11.055-16.015-14.425c-8.065-4.365-17.23-6.24-26.29-6.915
				C464.463-270.4617,445.173-264.6017,429.383-253.7567 M442.373-256.7868c6.555-3.9099,13.685-7.0349,21.225-8.4099
				c3.585-0.59,7.935,0.645,9.355,4.315l0.195-0.255c0.41,0.4,0.825,0.815,1.24,1.225c-1.335,1.7-0.835,3.94-0.965,5.94
				c0.08,1.23-0.715,2.265-0.885,3.455c-0.22,1.535-0.06,3.095-0.24,4.635c-0.29,0.09-0.87,0.27-1.16,0.36
				c-0.825,6.175-1.915,12.325-2.71,18.5c0.275,1.735-0.75,4.05-2.78,3.935c-1.8,0.18-2.73-1.56-3.995-2.48
				c-7.725-6.26-15.56-12.375-23.285-18.63c-1.87-1.33-2.445-3.795-2.01-5.95c-0.845,1.52-0.01,3.19,0.29,4.735
				c-1.395-0.83-1.04-2.76-1-4.125c0.155-0.54,0.135-1.83,1.055-1.485C437.663-253.6817,440.033-255.4068,442.373-256.7868
				 M491.353-262.7117c5.545-2.055,11.345,0.3,16.415,2.6c3.625,1.86,7.36,4.09,9.595,7.59c0.365,2.095,0.455,4.505-0.92,6.285
				c-2.185,3.41-6.275,4.595-9.675,6.385c-11.02,5.605-22.25,10.815-33.18,16.58c-0.99,0.385-2.315,0.775-3.17-0.09
				c-0.74-1.56,0.435-2.99,1.155-4.275c4.575-9.935,9.11-19.885,13.665-29.83C486.478-259.9517,488.843-261.6517,491.353-262.7117
				 M517.828-251.8617c0.65,0.535,0.73,2.59,0.03,3.145C517.463-249.6618,517.508-250.9017,517.828-251.8617 M414.503-231.2468
				c2.695-4.08,7.905-6.225,12.7-5.415c1.505,0.395,2.925,1.06,4.355,1.67c9.555,3.94,19.04,8.05,28.6,11.97
				c1.295,0.39,3.49,0.76,3.375,2.525c0.02,1.095-1.145,1.49-1.96,1.86c-13.09,3.485-26.09,7.395-39.165,10.995
				c-3.155,1.17-6.91,1.385-9.87-0.43c-1.185-0.335-1.605-1.59-2.245-2.5c-0.985,0.545-0.985-0.88-1.215-1.415
				c-0.195-2.125-0.215-4.33,0.275-6.41l0.7-0.105C410.673-222.9868,412.168-227.3568,414.503-231.2468 M514.353-233.1618
				c2.155-0.57,4.445-0.87,6.595-0.085c2.69,0.525,4.845,2.975,4.885,5.74c0.14,6.41-1.4301,12.9-4.79,18.395
				c-3.3,5-10.52,7.005-15.855,4.195c-9.68-4.095-19.39-8.12-29.065-12.22c-1.44-0.675-3.42-0.685-4.215-2.285
				c-0.215-1.21,0.965-1.845,1.87-2.295C487.333-225.3517,500.828-229.3517,514.353-233.1618 M467.378-215.5168
				c0.58-1.855,3.095-2.405,4.535-1.19c2.6,2.56,5.6,4.66,8.42,6.975c5.815,4.705,11.725,9.295,17.52,14.03
				c0.78,0.87,1.38,1.97,1.48,3.16c0.345,3.22-1.815,6.215-4.46,7.835c-4.785,3.065-9.89,5.66-15.27,7.5
				c-3.73,1.07-7.55,2.56-11.495,1.925c-2.135-0.425-4.24-1.695-5.195-3.71c-0.615-3,0.105-6.035,0.45-9.015
				c0.725-4.69,1.465-9.375,2.115-14.07c-0.7-0.515-0.65-2.305,0.39-2.245C466.308-208.0618,467.098-211.7518,467.378-215.5168
				 M461.308-216.8318c1.035-0.685,2.31-0.58,3.495-0.565c1.515,1.45-0.11,3.31-0.83,4.73c-4.585,9.945-9.135,19.915-13.705,29.865
				c-1.955,3.665-6.105,5.66-10.12,5.98c-2.455,0.23-4.785-0.665-7.085-1.365c-5.16-1.73-10.17-4.32-13.945-8.31
				c-1.83-2.07-1.615-5.315-0.115-7.5c1.995-3.34,5.88-4.615,9.18-6.255c7.69-3.855,15.415-7.65,23.13-11.46
				c0.815-0.83,2.385,0.085,2.77-1.285c-0.645-0.15-1.545,1.055-1.88,0.08c0.24-0.81,1.485-0.82,1.975-0.23
				C456.588-214.3018,459.023-215.4268,461.308-216.8318 M462.618-179.7568l-0.57-0.17c-0.25-1.865,0.06-3.73,0.33-5.565
				C462.568-183.5918,462.723-181.6768,462.618-179.7568z"/>
			<path fill="#FCFFF6" d="M485.238-257.4668c-4.555,9.945-9.09,19.895-13.665,29.83c-0.72,1.285-1.895,2.715-1.155,4.275
				c0.855,0.865,2.18,0.475,3.17,0.09c10.93-5.765,22.16-10.975,33.18-16.58c3.4-1.79,7.49-2.975,9.675-6.385
				c1.375-1.78,1.285-4.19,0.92-6.285c-2.235-3.5-5.97-5.73-9.595-7.59c-5.07-2.3-10.87-4.655-16.415-2.6
				C488.843-261.6517,486.478-259.9517,485.238-257.4668z"/>
			<path fill="#C88821" d="M472.098-251.9967c-0.25,2.165-0.68,4.31-0.96,6.475c0.29-0.09,0.87-0.27,1.16-0.36
				c0.18-1.54,0.02-3.1,0.24-4.635c0.17-1.19,0.965-2.225,0.885-3.455c0.13-2-0.37-4.24,0.965-5.94
				c-0.415-0.41-0.83-0.825-1.24-1.225l-0.195,0.255C473.353-257.8867,472.443-254.9467,472.098-251.9967z"/>
			<path fill="#D4A550" d="M517.858-248.7168c0.7-0.555,0.62-2.61-0.03-3.145C517.508-250.9017,517.463-249.6618,517.858-248.7168z"
				/>
			<path fill="#CD8919" d="M529.393-238.3168c1.125,4.475,1.735,9.15,1.0099,13.745c-0.585,1.625-0.5699,3.36-0.865,5.04
				c-0.44,1.14-0.77,2.31-0.94,3.53c-0.905,1.73-2.3,3.8-1.69,5.865c1.955-3.545,3.01-7.495,3.89-11.415
				c1.32-7.94,0.78-16.635-3.3-23.71C527.483-242.8067,528.658-240.6017,529.393-238.3168z"/>
			<path fill="#E79201" d="M533.173-238.4967c3.64,9.515,2.875,20.31-0.845,29.685c-4.205,10.51-11.58,19.555-20.31,26.665
				c-8.375,6.845-18.09,11.965-28.32,15.415c-15.545,5.195-32.73,6.42-48.53,1.625c-11.57-3.495-22.435-10.935-27.915-21.96
				c-0.59-0.665-0.065-2.17-1.47-1.94c1.77,15.215,8.17,29.94,18.465,41.34c6.885,7.75,15.505,13.99,25.055,18.035
				c15.335,6.535,33.0649,7.24,48.81,1.73c19.825-6.655,35.94-22.78,43.41-42.215c3.74-9.495,5.33-19.73,5.235-29.895
				c-0.46-3.5-0.405-7.065-1.12-10.52c-1.74-10.59-5.8-20.81-11.845-29.68c-0.89-1.135-1.515-2.53-2.765-3.33
				C531.618-241.8118,532.648-240.2617,533.173-238.4967z"/>
			<path fill="#FCFFF6" d="M473.778-221.7168c-0.905,0.45-2.085,1.085-1.87,2.295c0.795,1.6,2.775,1.61,4.215,2.285
				c9.675,4.1,19.385,8.125,29.065,12.22c5.335,2.81,12.555,0.805,15.855-4.195c3.3599-5.495,4.9299-11.985,4.79-18.395
				c-0.04-2.765-2.195-5.215-4.885-5.74c-2.15-0.785-4.44-0.485-6.595,0.085C500.828-229.3517,487.333-225.3517,473.778-221.7168z"
				/>
			<path fill="#FCFFF6" d="M465.868-204.3217c0,0.76-0.175,1.51-0.39,2.245c-0.65,4.695-1.39,9.38-2.115,14.07
				c-0.345,2.98-1.065,6.015-0.45,9.015c0.955,2.015,3.06,3.285,5.195,3.71c3.945,0.635,7.765-0.855,11.495-1.925
				c5.38-1.84,10.485-4.435,15.27-7.5c2.645-1.62,4.805-4.615,4.46-7.835c-0.1-1.19-0.7-2.29-1.48-3.16
				c-5.795-4.735-11.705-9.325-17.52-14.03c-2.82-2.315-5.82-4.415-8.42-6.975c-1.44-1.215-3.955-0.665-4.535,1.19
				C467.098-211.7518,466.308-208.0618,465.868-204.3217z"/>
			<path fill="#D6992D" d="M515.718-195.4318c-3.72,4.995-9.015,8.385-13.835,12.2c-1.025,0.855-2.385,1.145-3.355,2.08
				c-3.865,2.555-8.35,3.92-12.375,6.18c-0.83,0.375-1.675,0.785-2.2,1.565c7.225-2.43,13.98-6.175,20.235-10.51
				c8.745-6.205,16.465-14.125,21.525-23.64c-0.085-0.235-0.2599-0.705-0.345-0.94c-1.31,1.945-2.215,4.135-3.64,6.005
				C519.853-200.0318,518.193-197.3468,515.718-195.4318z"/>
		</g>
	</g>
</pattern>
<rect fill="url(#New_Pattern)" width="2560" height="1600"/>
</svg>
